<svg width="85" height="85" viewBox="0 0 85 85" fill="none" xmlns="http://www.w3.org/2000/svg">
<rect width="85" height="85" rx="42.5" fill="#BEE0FF"/>
<rect width="85" height="85" rx="42.5" fill="#BEE0FF"/>
<path d="M60.8239 24.1744C56.1347 19.4851 49.658 16.5834 42.4983 16.5834C35.3419 16.5834 28.8652 19.4851 24.1727 24.1744C19.4835 28.8636 16.585 35.3436 16.585 42.5C16.585 49.6564 19.4835 56.1364 24.1727 60.8256C28.8652 65.5148 35.3419 68.4166 42.4983 68.4166C49.658 68.4166 56.1347 65.5181 60.8239 60.8256C65.5164 56.1364 68.4149 49.6564 68.4149 42.5C68.4149 35.3436 65.5164 28.8669 60.8239 24.1744ZM42.4983 19.9982C45.5439 19.9982 48.4489 20.606 51.1023 21.704C53.8603 22.8477 56.3405 24.5175 58.4123 26.5893C60.4841 28.661 62.1539 31.138 63.2976 33.8992C64.3956 36.5527 65.0034 39.4577 65.0034 42.5C65.0034 45.5423 64.3956 48.4506 63.2976 51.104C62.1539 53.862 60.4841 56.3422 58.4123 58.414C56.7196 60.1067 54.7491 61.5314 52.5761 62.6229C50.4586 63.6849 49.0273 64.2208 46.5569 64.6423L46.4981 59.159C48.7789 58.5349 48.8737 58.4892 50.3965 57.6951C51.9519 56.8847 53.3734 55.839 54.6054 54.6071C56.187 53.0255 57.4581 51.14 58.3241 49.0519C59.1574 47.0356 59.6181 44.8266 59.6181 42.5C59.6181 40.1766 59.1574 37.9643 58.3241 35.9514C57.4581 33.8633 56.187 31.9778 54.6054 30.3962C53.0238 28.8146 51.1383 27.5434 49.0502 26.6775C47.0372 25.8442 44.825 25.3835 42.4983 25.3835C41.8546 25.3835 42.0278 25.3704 41.3611 25.4063C41.3481 23.8541 41.3905 21.2988 41.4559 20.0243C41.8382 20.008 42.1846 19.9982 42.4983 19.9982ZM39.5345 25.6383C37.7895 25.9422 36.1327 26.5108 34.6067 27.3049C33.0479 28.1153 31.6297 29.161 30.3945 30.3962C28.8129 31.9778 27.5418 33.8633 26.6758 35.9514C25.8425 37.9643 25.3818 40.1766 25.3818 42.5C25.3818 44.8266 25.8425 47.0356 26.6758 49.0519C27.5418 51.14 28.8129 53.0255 30.3945 54.6071C31.7539 55.9632 33.3355 57.0938 35.0772 57.9336C36.502 58.6199 38.0345 59.1133 39.6456 59.3845V49.0878H45.3543V59.4074H45.3609V64.8319L44.5962 64.9038C44.24 64.9364 43.8904 64.9626 43.5473 64.9789C43.1649 64.9953 42.8153 65.0051 42.4983 65.0051C39.456 65.0051 36.551 64.3973 33.8976 63.2993C31.1396 62.1556 28.6593 60.4825 26.5876 58.414C24.5158 56.3422 22.846 53.862 21.7023 51.104C20.6043 48.4506 19.9965 45.5423 19.9965 42.5C19.9965 39.4577 20.6043 36.5527 21.7023 33.8992C22.846 31.138 24.5158 28.661 26.5876 26.5893C28.2803 24.8966 30.2507 23.4685 32.4271 22.3771C34.5446 21.3151 36.8516 20.5766 39.2763 20.2302L40.2338 20.093V25.5142L39.5345 25.6383Z" fill="#1A1A1A"/>
<path d="M42.4982 14.5018C46.2888 14.5018 49.9029 15.2567 53.2034 16.6226C56.6345 18.0441 59.7193 20.1224 62.2976 22.7039C64.8758 25.2822 66.9574 28.3669 68.3756 31.7948C69.7448 35.0953 70.4996 38.7127 70.4996 42.5C70.4996 46.2906 69.7448 49.9048 68.3756 53.2052C66.9574 56.6364 64.8758 59.7211 62.2976 62.2994C59.7193 64.8777 56.6345 66.9559 53.2034 68.3774C49.9029 69.7433 46.2888 70.4982 42.4982 70.4982C38.7108 70.4982 35.0934 69.7433 31.793 68.3774C28.3651 66.9559 25.2803 64.8777 22.7021 62.2994C20.1238 59.7211 18.0423 56.6364 16.624 53.2052C15.2549 49.9048 14.5 46.2906 14.5 42.5C14.5 38.7127 15.2549 35.0953 16.624 31.7948C18.0423 28.3669 20.1238 25.2822 22.7021 22.7039C25.2803 20.1224 28.3651 18.0441 31.793 16.6226C35.0934 15.2567 38.7108 14.5018 42.4982 14.5018ZM52.7818 17.6552C49.6154 16.3448 46.145 15.6227 42.4982 15.6227C38.8546 15.6227 35.3843 16.3448 32.2178 17.6552C28.9337 19.0179 25.9731 21.0145 23.4929 23.4947C21.0126 25.9749 19.016 28.9355 17.6534 32.2196C16.343 35.3828 15.6208 38.8565 15.6208 42.5C15.6208 46.1468 16.343 49.6172 17.6534 52.7837C19.016 56.0678 21.0126 59.0284 23.4929 61.5086C25.9731 63.9888 28.9337 65.9854 32.2178 67.3448C35.3843 68.6585 38.8546 69.3806 42.4982 69.3806C46.145 69.3806 49.6154 68.6585 52.7818 67.3448C56.0659 65.9854 59.0265 63.9888 61.5068 61.5086C63.987 59.0284 65.9836 56.0678 67.3462 52.7837C68.6566 49.6172 69.3788 46.1468 69.3788 42.5C69.3788 38.8565 68.6566 35.3828 67.3462 32.2196C65.9836 28.9355 63.987 25.9749 61.5068 23.4947C59.0265 21.0145 56.0659 19.0179 52.7818 17.6552Z" fill="#1A1A1A"/>
</svg>
